<?xml version="1.0" standalone="no"?>
<!DOCTYPE svg PUBLIC "-//W3C//DTD SVG 20010904//EN"
 "http://www.w3.org/TR/2001/REC-SVG-20010904/DTD/svg10.dtd">
<svg version="1.0" xmlns="http://www.w3.org/2000/svg"
 width="1024.000000pt" height="1024.000000pt" viewBox="0 0 1024.000000 1024.000000"
 preserveAspectRatio="xMidYMid meet">
<metadata>
Created by potrace 1.14, written by Peter Selinger 2001-2017
</metadata>
<g transform="translate(0.000000,1024.000000) scale(0.100000,-0.100000)"
fill="#000000" stroke="none">
<path d="M7220 7739 c-176 -12 -304 -26 -535 -59 -577 -83 -999 -223 -1333
-443 -106 -70 -228 -165 -281 -221 l-34 -35 24 -30 c13 -16 44 -53 68 -82 98
-121 109 -130 149 -123 23 4 56 23 87 51 189 167 398 281 689 380 123 41 351
97 499 123 131 22 392 53 410 48 6 -2 -229 -241 -523 -532 -294 -291 -597
-594 -673 -673 -137 -143 -139 -145 -132 -181 11 -57 74 -140 128 -169 16 -8
47 -15 69 -15 l41 0 762 762 c450 450 765 758 769 751 4 -6 9 -183 12 -394 7
-490 -8 -690 -78 -997 -79 -351 -205 -629 -376 -830 -123 -145 -353 -339 -386
-327 -8 3 -16 -2 -19 -13 -3 -10 -18 -21 -36 -25 -17 -4 -31 -11 -31 -16 0 -6
-4 -8 -9 -5 -5 4 -11 1 -13 -5 -2 -6 -16 -11 -31 -11 -15 0 -24 -4 -21 -9 3
-5 -1 -9 -9 -9 -8 0 -27 -7 -43 -14 -15 -8 -31 -13 -35 -10 -16 10 -22 -51
-10 -107 6 -31 10 -63 8 -70 -2 -8 -2 -10 1 -5 3 5 17 -28 32 -75 15 -46 26
-87 23 -91 -12 -21 60 -3 156 37 548 231 935 698 1116 1345 94 338 132 709
122 1195 -9 412 -46 796 -82 851 -9 14 -27 29 -41 34 -29 12 -254 11 -434 -1z"/>
<path d="M4472 7515 c-16 -14 -49 -62 -72 -107 -53 -102 -148 -275 -390 -708
-213 -381 -308 -552 -440 -795 -51 -93 -105 -192 -120 -220 -79 -145 -255
-485 -345 -666 -159 -323 -203 -482 -212 -775 -6 -209 6 -337 47 -499 54 -216
134 -386 263 -568 209 -291 472 -486 804 -597 215 -71 411 -96 635 -80 467 34
862 228 1148 565 223 264 354 589 385 960 11 122 11 404 1 398 -5 -3 -6 11 -3
33 4 25 3 32 -2 19 -6 -15 -10 -7 -15 35 -4 31 -4 65 -1 75 6 17 5 17 -4 5 -9
-11 -10 -5 -5 28 6 36 4 41 -9 36 -12 -4 -18 7 -28 53 -7 32 -18 70 -26 86 -7
15 -10 27 -6 27 5 0 1 5 -7 10 -10 6 -11 10 -2 10 6 0 12 8 12 18 0 14 -2 15
-10 2 -9 -13 -11 -13 -19 0 -5 8 -7 18 -5 22 3 4 1 8 -4 8 -12 0 -38 60 -34
79 2 8 -1 10 -9 6 -9 -6 -10 -1 -6 17 5 18 2 30 -11 39 -15 13 -16 12 -3 -4 8
-9 12 -20 9 -23 -9 -8 -76 130 -70 145 3 8 0 11 -7 7 -7 -5 -11 2 -11 19 0 14
-4 24 -8 21 -8 -5 -54 83 -49 94 1 3 -8 17 -21 30 -22 24 -68 103 -151 262
-21 40 -81 152 -133 248 -53 96 -129 238 -170 315 -256 479 -327 610 -376 690
-55 90 -198 346 -305 547 -32 58 -71 118 -88 132 -40 34 -88 34 -127 1z m245
-940 c94 -170 195 -357 226 -415 30 -58 76 -145 103 -195 128 -240 247 -471
249 -485 2 -8 4 -21 4 -28 1 -7 6 -10 13 -6 7 4 8 3 4 -4 -4 -7 6 -40 23 -75
42 -86 74 -173 137 -377 140 -448 157 -685 73 -1012 -84 -331 -304 -595 -616
-739 -207 -96 -357 -129 -584 -129 -267 0 -437 38 -656 146 -108 53 -140 74
-171 112 -89 106 -154 229 -212 398 -50 149 -64 241 -63 434 1 265 38 392 228
765 191 375 270 520 947 1745 103 185 108 194 117 184 4 -5 84 -148 178 -319z"/>
<path d="M3678 4456 c-59 -21 -85 -42 -114 -91 -23 -40 -26 -54 -22 -110 5
-74 22 -104 87 -150 37 -26 51 -30 109 -30 81 0 130 26 166 88 52 89 42 174
-28 243 -59 60 -125 76 -198 50z"/>
<path d="M5870 5405 c-7 -9 -10 -18 -7 -21 3 -3 10 4 17 15 13 25 8 27 -10 6z"/>
<path d="M5929 5363 c6 -12 16 -25 22 -28 6 -5 3 -13 -10 -22 -23 -16 -29 -68
-8 -76 9 -4 9 -8 0 -14 -9 -6 -9 -17 0 -46 7 -20 16 -37 20 -37 5 0 5 -4 2
-10 -4 -6 5 -10 19 -10 19 0 26 -5 26 -20 0 -13 7 -20 20 -20 13 0 20 -7 20
-20 0 -13 7 -20 20 -20 13 0 20 -7 20 -20 0 -13 7 -20 20 -20 13 0 20 -7 20
-20 0 -13 -7 -20 -20 -20 -13 0 -20 -7 -20 -20 0 -17 7 -20 40 -20 33 0 40 -3
40 -20 0 -18 7 -20 60 -20 53 0 60 -2 60 -20 0 -13 7 -20 20 -20 13 0 20 -7
20 -20 0 -18 7 -20 80 -20 73 0 80 -2 80 -20 0 -13 7 -20 20 -20 13 0 20 7 20
20 0 13 -7 20 -20 20 -12 0 -20 7 -20 16 0 13 -460 482 -539 549 l-24 20 12
-22z"/>
<path d="M6480 4720 c0 -5 5 -10 11 -10 5 0 7 5 4 10 -3 6 -8 10 -11 10 -2 0
-4 -4 -4 -10z"/>
<path d="M8452 2855 c0 -16 2 -22 5 -12 2 9 2 23 0 30 -3 6 -5 -1 -5 -18z"/>
<path d="M1301 2684 c0 -11 3 -14 6 -6 3 7 2 16 -1 19 -3 4 -6 -2 -5 -13z"/>
<path d="M8421 2684 c0 -11 3 -14 6 -6 3 7 2 16 -1 19 -3 4 -6 -2 -5 -13z"/>
<path d="M1311 2634 c0 -11 3 -14 6 -6 3 7 2 16 -1 19 -3 4 -6 -2 -5 -13z"/>
<path d="M8386 2574 c-4 -9 -4 -19 -1 -22 2 -3 7 3 11 12 4 9 4 19 1 22 -2 3
-7 -3 -11 -12z"/>
<path d="M8775 2520 c3 -5 8 -10 11 -10 2 0 4 5 4 10 0 6 -5 10 -11 10 -5 0
-7 -4 -4 -10z"/>
<path d="M1760 2500 c0 -5 5 -10 11 -10 5 0 7 5 4 10 -3 6 -8 10 -11 10 -2 0
-4 -4 -4 -10z"/>
<path d="M8341 2474 c-6 -15 -9 -29 -7 -32 3 -2 10 8 16 23 14 36 7 43 -9 9z"/>
<path d="M8767 2493 c-2 -5 -7 -26 -11 -48 -4 -31 -4 -35 4 -17 17 40 22 92 7
65z"/>
<path d="M1360 2471 c0 -6 4 -13 10 -16 6 -3 7 1 4 9 -7 18 -14 21 -14 7z"/>
<path d="M1381 2424 c0 -11 3 -14 6 -6 3 7 2 16 -1 19 -3 4 -6 -2 -5 -13z"/>
<path d="M8291 2377 c-13 -21 -12 -21 5 -5 10 10 16 20 13 22 -3 3 -11 -5 -18
-17z"/>
<path d="M8260 2330 c-6 -11 -8 -20 -6 -20 3 0 10 9 16 20 6 11 8 20 6 20 -3
0 -10 -9 -16 -20z"/>
<path d="M8225 2280 c-17 -18 -17 -20 -1 -20 9 0 15 4 12 9 -4 5 0 11 6 14 7
2 10 7 7 11 -3 3 -14 -3 -24 -14z"/>
<path d="M1466 2237 c3 -10 9 -15 12 -12 3 3 0 11 -7 18 -10 9 -11 8 -5 -6z"/>
<path d="M8165 2210 c-3 -5 1 -10 9 -10 9 0 16 5 16 10 0 6 -4 10 -9 10 -6 0
-13 -4 -16 -10z"/>
<path d="M1500 2180 c6 -11 13 -20 16 -20 2 0 0 9 -6 20 -6 11 -13 20 -16 20
-2 0 0 -9 6 -20z"/>
<path d="M8100 2135 c-7 -9 -8 -15 -2 -15 5 0 12 7 16 15 3 8 4 15 2 15 -2 0
-9 -7 -16 -15z"/>
<path d="M8584 2107 c-21 -26 -30 -52 -14 -42 10 6 44 65 37 65 -2 0 -12 -10
-23 -23z"/>
<path d="M8112 2099 c-31 -12 -27 -21 6 -15 15 2 30 5 35 5 4 1 7 5 7 9 0 11
-20 11 -48 1z"/>
<path d="M8005 2055 l-30 -25 32 17 c18 10 33 21 33 26 0 10 -2 9 -35 -18z"/>
<path d="M8527 2025 c-34 -30 -47 -32 -47 -5 0 13 -7 20 -20 20 -17 0 -20 -7
-20 -40 l0 -40 -40 0 c-22 0 -40 -4 -40 -10 0 -5 -9 -10 -20 -10 -11 0 -20 -4
-20 -10 0 -5 -9 -10 -20 -10 -13 0 -20 -7 -20 -20 0 -19 -7 -20 -140 -20 -133
0 -140 -1 -140 -20 0 -18 -7 -20 -80 -20 -73 0 -80 -2 -80 -20 0 -18 -7 -20
-60 -20 -53 0 -60 2 -60 20 0 16 -7 20 -31 20 -20 0 -29 4 -26 13 2 6 14 12
27 12 13 0 25 6 28 13 2 7 8 10 13 6 5 -3 16 2 25 10 8 9 22 16 31 16 8 0 26
9 40 20 27 21 25 27 -5 10 -31 -17 -156 -68 -184 -75 -16 -4 -28 -12 -28 -17
0 -6 6 -8 13 -5 10 4 13 -2 9 -19 -6 -32 -32 -31 -32 1 0 14 -1 25 -3 25 -1 0
-34 -8 -72 -17 -64 -16 -196 -18 -1460 -23 -764 -3 -1382 -6 -1373 -8 9 -1 24
-12 33 -24 8 -13 69 -77 135 -144 123 -124 139 -154 84 -154 -17 0 -24 -6 -24
-19 0 -16 -11 -22 -57 -31 -42 -9 -58 -9 -61 -1 -2 7 -31 11 -73 11 -55 0 -69
-3 -69 -15 0 -14 151 -15 1423 -13 l1422 3 105 23 c136 30 232 63 350 118 143
68 185 94 169 106 -11 8 -10 8 4 4 19 -6 87 34 139 82 23 21 26 28 15 41 -11
14 -10 14 6 2 17 -14 26 -7 114 81 60 62 92 101 87 109 -4 7 -3 9 3 6 6 -4 23
9 37 28 32 41 31 43 -7 10z m-107 -129 c0 -3 -4 -8 -10 -11 -5 -3 -10 -1 -10
4 0 6 5 11 10 11 6 0 10 -2 10 -4z m-870 -76 c-8 -5 -24 -9 -35 -9 -16 1 -16
2 5 9 35 11 48 11 30 0z m355 -270 c-3 -5 -11 -10 -16 -10 -6 0 -7 5 -4 10 3
6 11 10 16 10 6 0 7 -4 4 -10z m-2882 -86 c28 -34 33 -51 11 -36 -16 11 -56
72 -47 72 4 0 21 -16 36 -36z"/>
<path d="M7917 1995 c-26 -19 -48 -37 -48 -40 -1 -19 9 -27 29 -21 16 6 21 13
17 26 -4 13 3 23 25 36 16 10 30 22 30 26 0 11 2 11 -53 -27z"/>
<path d="M1638 1985 c11 -16 35 -43 53 -60 18 -16 28 -23 21 -14 -6 9 -8 20
-4 24 4 5 2 5 -5 2 -6 -4 -27 11 -48 35 -21 24 -28 30 -17 13z"/>
<path d="M8020 1935 c0 -8 5 -15 10 -15 6 0 10 7 10 15 0 8 -4 15 -10 15 -5 0
-10 -7 -10 -15z"/>
<path d="M8130 1935 c0 -8 7 -15 15 -15 8 0 15 7 15 15 0 8 -7 15 -15 15 -8 0
-15 -7 -15 -15z"/>
<path d="M2380 1906 c0 -2 7 -7 16 -10 8 -3 12 -2 9 4 -6 10 -25 14 -25 6z"/>
<path d="M2548 1843 c7 -3 16 -2 19 1 4 3 -2 6 -13 5 -11 0 -14 -3 -6 -6z"/>
<path d="M2628 1823 c6 -2 18 -2 25 0 6 3 1 5 -13 5 -14 0 -19 -2 -12 -5z"/>
<path d="M2703 1813 c9 -2 25 -2 35 0 9 3 1 5 -18 5 -19 0 -27 -2 -17 -5z"/>
<path d="M3613 1803 c75 -2 199 -2 275 0 75 1 13 3 -138 3 -151 0 -213 -2
-137 -3z"/>
<path d="M4368 1803 c7 -3 16 -2 19 1 4 3 -2 6 -13 5 -11 0 -14 -3 -6 -6z"/>
<path d="M1830 1791 c0 -6 4 -13 10 -16 6 -3 7 1 4 9 -7 18 -14 21 -14 7z"/>
<path d="M1872 1754 c10 -10 20 -16 22 -13 3 3 -5 11 -17 18 -21 13 -21 12 -5
-5z"/>
<path d="M1910 1720 c35 -24 54 -31 30 -11 -14 11 -29 21 -35 21 -5 0 -3 -5 5
-10z"/>
<path d="M1981 1677 c2 -2 15 -10 29 -19 25 -15 26 -15 28 5 1 16 -1 18 -7 8
-6 -9 -11 -10 -15 -2 -4 6 -14 11 -23 11 -9 0 -14 -1 -12 -3z"/>
<path d="M2057 1629 c7 -7 15 -10 18 -7 3 3 -2 9 -12 12 -14 6 -15 5 -6 -5z"/>
<path d="M2114 1595 c11 -8 24 -15 30 -15 5 0 1 7 -10 15 -10 8 -23 14 -29 14
-5 0 -1 -6 9 -14z"/>
<path d="M2160 1573 c0 -5 57 -32 110 -53 28 -11 49 -16 45 -10 -3 5 -12 10
-18 11 -18 0 -108 45 -103 50 3 3 -4 5 -14 5 -11 0 -20 -1 -20 -3z"/>
<path d="M2337 1499 c7 -7 15 -10 18 -7 3 3 -2 9 -12 12 -14 6 -15 5 -6 -5z"/>
<path d="M2420 1469 c73 -26 199 -44 213 -30 8 8 -9 11 -58 11 -50 0 -66 3
-55 10 11 7 5 8 -19 3 -20 -4 -32 -2 -28 3 3 5 -2 10 -11 10 -9 0 -35 3 -57 7
-36 6 -35 5 15 -14z"/>
<path d="M2690 1430 c-53 -7 -52 -7 30 -9 203 -7 540 -5 540 2 0 4 -110 7
-244 7 -134 0 -250 1 -258 3 -7 2 -38 1 -68 -3z"/>
<path d="M3800 1429 c0 -13 289 -17 525 -8 137 5 249 10 251 12 1 1 -173 2
-387 2 -214 0 -389 -3 -389 -6z"/>
<path d="M3355 1423 c225 -7 425 -7 425 0 0 4 -116 6 -257 5 -142 -1 -217 -3
-168 -5z"/>
</g>
</svg>
